PathFileType	4	(X/Y/Z)	/Users/itak/Documents/Research/Walk-IL/dataset/trc/00297_00010.trc
DataRate	CameraRate	NumFrames	NumMarkers	Units	OrigDataRate	OrigDataStartFrame	OrigNumFrames
100.000000	100.000000	4	53	mm	100.000000	47	377
Frame#	Time	RPSI			LPSI			L3			STRN			T10			C7			CLAV			RBAK			LBAK			LSHO			LUPA			LAEL			LAOL			LWTS			LWPS			LFRA			LIFD			LHPS			LHTS			RSHO			RUPA			RAEL			RAOL			RWTS			RWPS			RFRA			RIFD			RHTS			RHPS			RBHD			LFHD			RFHD			LBHD			RASI			LASI			LKNE			LTHI			LANK			LTIP			LTOE			LMT1			LMT5			LHEE			RKNE			RTHI			RANK			RTIP			RTOE			RMT1			RMT5			RHEE			LHIP			RHIP			
		X1	Y1	Z1	X2	Y2	Z2	X3	Y3	Z3	X4	Y4	Z4	X5	Y5	Z5	X6	Y6	Z6	X7	Y7	Z7	X8	Y8	Z8	X9	Y9	Z9	X10	Y10	Z10	X11	Y11	Z11	X12	Y12	Z12	X13	Y13	Z13	X14	Y14	Z14	X15	Y15	Z15	X16	Y16	Z16	X17	Y17	Z17	X18	Y18	Z18	X19	Y19	Z19	X20	Y20	Z20	X21	Y21	Z21	X22	Y22	Z22	X23	Y23	Z23	X24	Y24	Z24	X25	Y25	Z25	X26	Y26	Z26	X27	Y27	Z27	X28	Y28	Z28	X29	Y29	Z29	X30	Y30	Z30	X31	Y31	Z31	X32	Y32	Z32	X33	Y33	Z33	X34	Y34	Z34	X35	Y35	Z35	X36	Y36	Z36	X37	Y37	Z37	X38	Y38	Z38	X39	Y39	Z39	X40	Y40	Z40	X41	Y41	Z41	X42	Y42	Z42	X43	Y43	Z43	X44	Y44	Z44	X45	Y45	Z45	X46	Y46	Z46	X47	Y47	Z47	X48	Y48	Z48	X49	Y49	Z49	X50	Y50	Z50	X51	Y51	Z51	X52	Y52	Z52	X53	Y53	Z53	

48	0.47	-902.7249755859375	987.8472900390625	620.5165405273438	-897.359130859375	978.572021484375	445.2460021972656	-877.966796875	1050.055541992188	542.7874145507812	-625.2659912109375	1212.21923828125	509.3755187988281	-887.4657592773438	1160.789184570312	549.8351440429688	-841.1138305664062	1401.920654296875	515.2061767578125	-684.7783813476562	1315.617919921875	503.8460388183594	-883.6652221679688	1273.530883789062	607.4901123046875	-874.498779296875	1356.977661132812	418.4142761230469	-794.2947998046875	1358.348388671875	351.1582946777344	-850.4329223632812	1244.244262695312	293.6720581054688	-879.9273071289062	1044.793212890625	291.1056823730469	-913.0506591796875	1037.7939453125	370.3526306152344	-834.173095703125	808.1213989257812	317.94287109375	-888.555908203125	806.181640625	270.0381469726562	-890.273193359375	940.1390991210938	279.87109375	-876.4441528320312	628.6937255859375	326.8104858398438	-904.845703125	718.6821899414062	276.6190185546875	-841.798583984375	707.0847778320312	297.7841796875	-749.859619140625	1391.464477539062	662.3224487304688	-746.1534423828125	1339.473876953125	735.8970947265625	-763.3760375976562	1073.970825195312	797.7491455078125	-819.0130615234375	1069.814575195312	719.7379760742188	-713.5819091796875	837.976318359375	724.7842407226562	-731.9993896484375	838.7654418945312	808.0927124023438	-743.7474365234375	1004.159240722656	802.969482421875	-732.2149047851562	652.0993041992188	731.0986328125	-696.2340698242188	719.3981323242188	737.31396484375	-726.812744140625	725.0768432617188	801.0579223632812	-785.5313720703125	1572.453857421875	564.0595703125	-657.6471557617188	1576.37646484375	393.5225524902344	-630.1357421875	1586.184936523438	481.5654296875	-829.5001220703125	1546.27587890625	424.8007507324219	-689.876953125	918.9824829101562	663.9920043945312	-691.2428588867188	926.2824096679688	412.6397705078125	-624.128662109375	488.1877136230469	419.7897338867188	-678.7963256835938	618.1201782226562	379.0010986328125	-690.8026733398438	48.4173469543457	474.8661193847656	-649.1557006835938	254.3977661132812	437.5359191894531	-483.0666198730469	39.3553581237793	544.1700439453125	-556.4552612304688	31.58916664123535	581.1000366210938	-566.384765625	44.70485305786133	469.4631042480469	-735.7406005859375	37.92942810058594	533.4813232421875	-894.8228149414062	459.0082397460938	706.7169189453125	-804.043701171875	705.9022216796875	728.1724243164062	-1240.150634765625	162.2514953613281	684.0653686523438	-967.7042846679688	355.6651306152344	699.5098266601562	-1131.335693359375	42.3741340637207	602.4113159179688	-1165.6376953125	76.23294067382812	570.91455078125	-1189.319458007812	68.09461212158203	688.3326416015625	-1272.628540039062	209.2724609375	642.618896484375	-825.26708984375	931.4210815429688	352.0320739746094	-814.9473266601562	920.7984008789062	726.261962890625	
49	0.48	-893.480712890625	988.001220703125	618.943603515625	-887.9794921875	979.8814086914062	443.5699462890625	-868.5176391601562	1051.37255859375	541.0446166992188	-615.85205078125	1213.662719726562	507.6285705566406	-877.9642944335938	1162.1083984375	548.0437622070312	-831.9871215820312	1403.082153320312	513.3958740234375	-675.487548828125	1317.019165039062	501.982177734375	-874.2258911132812	1274.800415039062	605.7833862304688	-865.3241577148438	1357.978881835938	416.7009582519531	-785.0677490234375	1359.390258789062	349.3885192871094	-840.973876953125	1245.175048828125	291.8671569824219	-869.5718383789062	1045.551147460938	289.2212524414062	-902.6832885742188	1038.370849609375	368.4886474609375	-820.8001708984375	809.4661865234375	315.9367065429688	-875.2433471679688	806.714111328125	268.1399841308594	-878.7858276367188	940.6990966796875	277.9713745117188	-860.0685424804688	629.3779296875	324.5568237304688	-890.18896484375	719.0661010742188	274.6384582519531	-826.7960815429688	708.42236328125	295.5861206054688	-740.592041015625	1393.288452148438	660.273193359375	-736.5546264648438	1341.64013671875	734.0258178710938	-753.6831665039062	1076.734375	797.60791015625	-810.7825317382812	1072.70849609375	720.4628295898438	-705.9177856445312	840.2506103515625	725.1024780273438	-723.4387817382812	841.4154052734375	808.6934814453125	-734.4141235351562	1006.845764160156	802.77392578125	-724.5640869140625	654.4948120117188	732.1596069335938	-688.4832763671875	721.7932739257812	737.8668212890625	-718.3495483398438	727.6175537109375	801.928466796875	-776.7244262695312	1573.690185546875	562.3642578125	-649.6911010742188	1578.016723632812	391.1574096679688	-621.798828125	1587.9140625	479.0597839355469	-821.300537109375	1547.393188476562	423.3411254882812	-680.3287963867188	920.2091064453125	662.0109252929688	-681.826416015625	927.5548095703125	410.6175231933594	-619.5809936523438	487.3771057128906	419.049560546875	-672.4978637695312	617.91650390625	377.9449768066406	-690.6146240234375	48.51759719848633	474.9806518554688	-646.958984375	253.8993072509766	437.2701721191406	-482.9046325683594	39.20016860961914	544.5306396484375	-556.4340209960938	31.57773971557617	581.2315063476562	-566.3295288085938	44.78242111206055	469.6154479980469	-735.7012329101562	38.01243591308594	533.5230712890625	-874.201171875	457.6549987792969	707.4990234375	-790.6116943359375	706.5393676757812	727.0245971679688	-1226.558471679688	170.9398193359375	686.4885864257812	-948.5910034179688	355.5802917480469	700.4453735351562	-1127.109008789062	41.22893905639648	603.0980224609375	-1159.106811523438	79.62899780273438	572.4727172851562	-1182.028686523438	73.46026611328125	689.8147583007812	-1256.605834960938	219.1700592041016	644.9742431640625	-815.7678833007812	932.8723754882812	350.1770935058594	-805.4866943359375	921.4255981445312	724.5865478515625	
50	0.49	-884.5029907226562	987.99755859375	617.4830932617188	-878.9404296875	981.109375	442.0006103515625	-859.3815307617188	1052.646118164062	539.3175048828125	-606.6229858398438	1214.948486328125	506.0730590820312	-868.71875	1163.425170898438	546.2405395507812	-822.9403076171875	1404.24755859375	511.5340270996094	-666.322021484375	1318.282348632812	500.2513427734375	-865.0095825195312	1276.0712890625	604.0223388671875	-856.1611328125	1358.997314453125	414.8725280761719	-775.7677001953125	1360.332763671875	347.6233215332031	-831.3422241210938	1245.976196289062	289.9794311523438	-859.0418701171875	1046.14990234375	287.1862182617188	-892.3485717773438	1038.82763671875	366.380615234375	-807.1997680664062	810.7636108398438	313.9814758300781	-861.5300903320312	807.156005859375	266.153564453125	-867.0289306640625	941.1306762695312	275.9559936523438	-843.294921875	630.023193359375	322.1651306152344	-875.0601196289062	719.3427124023438	272.4839477539062	-811.4698486328125	709.7504272460938	293.37890625	-731.533935546875	1395.003784179688	658.2894287109375	-727.2986450195312	1343.640014648438	732.1972045898438	-744.4149780273438	1079.272705078125	797.3471069335938	-802.6563110351562	1075.296997070312	720.8211669921875	-698.233154296875	842.3977661132812	725.4761962890625	-715.07568359375	843.8966674804688	809.2770385742188	-725.4214477539062	1009.350830078125	802.552490234375	-716.6528930664062	656.762451171875	733.1458740234375	-680.6315307617188	724.0880737304688	738.5087890625	-709.9977416992188	729.9969482421875	802.7809448242188	-767.9087524414062	1574.843017578125	560.7238159179688	-641.693603515625	1579.577026367188	388.8730163574219	-613.4215087890625	1589.56103515625	476.6448974609375	-813.06591796875	1548.455810546875	421.9198608398438	-670.9987182617188	921.2926025390625	660.0755615234375	-672.7100830078125	928.7662963867188	408.6095886230469	-615.3040161132812	486.6497497558594	418.2877502441406	-666.44677734375	617.8372192382812	376.8697814941406	-690.4601440429688	48.58195877075195	475.048583984375	-644.8637084960938	253.4351043701172	436.9522705078125	-482.7753601074219	39.09260177612305	544.8153686523438	-556.403076171875	31.59855079650879	581.3112182617188	-566.2909545898438	44.82585525512695	469.7119140625	-735.6683959960938	38.07976531982422	533.5360107421875	-853.031005859375	456.4563293457031	708.1209716796875	-776.8465576171875	706.8883056640625	725.5265502929688	-1211.67138671875	179.4319152832031	688.9177856445312	-928.6292114257812	355.5531311035156	701.18408203125	-1121.464965820312	40.04484558105469	604.0040283203125	-1151.206176757812	83.23702239990234	574.2755737304688	-1173.345092773438	79.141845703125	691.4110717773438	-1239.405517578125	228.7024230957031	647.2830810546875	-806.5206298828125	934.2845458984375	348.3983764648438	-796.2965087890625	921.9972534179688	723.0729370117188	
51	0.5	-875.7523803710938	987.872314453125	616.1593627929688	-870.2302856445312	982.2559814453125	440.5595397949219	-850.537109375	1053.879028320312	537.6296997070312	-597.589111328125	1216.096313476562	504.6932678222656	-859.7301025390625	1164.744873046875	544.4515991210938	-813.9937133789062	1405.434814453125	509.6299438476562	-657.2959594726562	1319.419311523438	498.6526184082031	-856.0189819335938	1277.359619140625	602.2284545898438	-847.0291748046875	1360.048461914062	412.9413757324219	-766.4291381835938	1361.190795898438	345.87744140625	-821.5311889648438	1246.650268554688	288.0092468261719	-848.283203125	1046.59619140625	284.9954833984375	-882.028564453125	1039.15966796875	364.0076599121094	-793.378662109375	812.0076293945312	312.08984375	-847.4326171875	807.5255737304688	264.0691528320312	-854.956298828125	941.4463500976562	273.8253784179688	-826.2146606445312	630.6455078125	319.658203125	-859.5033569335938	719.5391845703125	270.1618041992188	-795.8746948242188	711.058349609375	291.1884155273438	-722.6726684570312	1396.617309570312	656.382080078125	-718.3799438476562	1345.475341796875	730.416015625	-735.6320190429688	1081.582397460938	796.92919921875	-794.6307983398438	1077.565795898438	720.7096557617188	-690.4717407226562	844.4030151367188	725.9520263671875	-706.9833984375	846.2008056640625	809.8470458984375	-716.8323974609375	1011.676452636719	802.2952270507812	-708.5185546875	658.8831176757812	734.1049194335938	-672.688720703125	726.2518920898438	739.328125	-701.8701171875	732.218994140625	803.653564453125	-759.078125	1575.92529296875	559.1266479492188	-633.6474609375	1581.050048828125	386.6630859375	-604.9999389648438	1591.120361328125	474.3172607421875	-804.7926635742188	1549.468383789062	420.5237426757812	-661.8469848632812	922.25634765625	658.160888671875	-663.9290771484375	929.93994140625	406.6194763183594	-611.2864990234375	486.0014038085938	417.5091247558594	-660.6439819335938	617.8702392578125	375.7873840332031	-690.3414306640625	48.61516571044922	475.0768432617188	-642.864501953125	253.006591796875	436.6031799316406	-482.6806030273438	39.01900100708008	545.0279541015625	-556.3704833984375	31.63356018066406	581.3526611328125	-566.2656860351562	44.8380012512207	469.7631530761719	-735.6404418945312	38.13315582275391	533.5286865234375	-831.4085083007812	455.5028991699219	708.5277709960938	-762.8096923828125	707.0655517578125	723.781005859375	-1195.5029296875	187.5532836914062	691.3504028320312	-907.89794921875	355.6532592773438	701.717529296875	-1114.174926757812	38.96632385253906	605.1832885742188	-1141.58642578125	87.00028991699219	576.3589477539062	-1162.987060546875	84.96681213378906	693.1548461914062	-1221.184692382812	237.6511840820312	649.5274047851562	-797.5169677734375	935.6685180664062	346.7098083496094	-787.3197021484375	922.5348510742188	721.7147827148438	
